<svg xmlns="http://www.w3.org/2000/svg" viewBox="0 0 691.72 371.42"><defs><style>.cls-1{fill:#0043aa;}.cls-2{fill:#b4bd00;}.cls-3{fill:#61b0bc;}</style></defs><g id="Capa_2" data-name="Capa 2"><g id="Capa_1-2" data-name="Capa 1"><path class="cls-1" d="M660.19,237.61q31.48-36.5,31.53-86.3,0-55.54-38.41-94.18T561.38,18.5a128.16,128.16,0,0,0-65.6,17.77,130,130,0,0,0-48,47.94q-17.46,30.18-17.45,66.24,0,54,37.49,93.09t94.13,39q32.13,0,58.57-13.58l5.21,6.77A8.27,8.27,0,0,0,632.3,279h43.76a8.26,8.26,0,0,0,6.54-13.3Zm-98.42-1.34a82.44,82.44,0,0,1-53.25-19q-30-24.27-30-66,0-37.44,23.78-61.7t59-24.28q34.22,0,58.34,25T643.85,151a87.24,87.24,0,0,1-14.11,48.22l-9-13.74a8.26,8.26,0,0,0-6.54-3.21H570.47a8.26,8.26,0,0,0-6.54,13.31l27.14,35.23A78.55,78.55,0,0,1,561.77,236.27Z"/><path class="cls-1" d="M375.5,25.11H407a7.49,7.49,0,0,1,8,7.46V268.23s0,8.33-8.45,8.33H375.79c-8.06,0-8.3-7.7-8.3-7.7V32.59S366.61,25.11,375.5,25.11Z"/><path class="cls-1" d="M271.57,279.27H225.31a8.69,8.69,0,0,1-6.91-3.41l-13.66-17.71H111.46A8.72,8.72,0,0,1,104,245L170.4,133.06a8.74,8.74,0,0,1,7.51-4.27H301.59a8.72,8.72,0,0,1,7.6,13L256,236.1l22.46,29.1a8.74,8.74,0,0,1-6.92,14.07Z"/><path class="cls-2" d="M83,242.38a8.71,8.71,0,0,1-6.91-3.4L3.75,145.51a8.73,8.73,0,0,1-.7-9.64L67.43,22.1a8.74,8.74,0,0,1,14.51-1l74.39,96.18a8.74,8.74,0,0,1,.58,9.84l-66.46,111a8.73,8.73,0,0,1-7,4.23Z"/><path class="cls-3" d="M300.62,114.14H176.94a8.73,8.73,0,0,1-6.91-3.4L95.39,14.06A8.73,8.73,0,0,1,102.3,0H225.87a8.75,8.75,0,0,1,6.91,3.39l74.75,96.67a8.74,8.74,0,0,1-6.91,14.08Z"/><path class="cls-1" d="M24.56,343c-2.51-4-6.55-4.62-10.44-4.67s-10.43,1.47-10.43,7c0,4.38,4.72,5.42,10.53,6.5,6.64,1.28,13.53,2.46,13.53,9.89,0,7.77-7.87,9.64-13.63,9.64-5.36,0-11.46-2.21-14.12-7.47l2.36-1.19C4.48,366.9,9.89,369,14.12,369s11-1.18,11-7.28c0-5.17-5.66-6.3-11.32-7.38C7.48,353.07,1,351.79,1,345.44c-.14-7.28,7.43-9.54,13.09-9.54,4.92,0,9.21.78,12.6,5.85Z"/><path class="cls-1" d="M69.09,353.66c0,9-5.81,17.76-17.37,17.76s-17.37-8.76-17.37-17.86,5.75-17.71,17.37-17.71S69.14,344.36,69.09,353.66ZM37,353.61c0,7.78,5,15.35,14.77,15.35s14.81-7.57,14.81-15.35c0-8-4.92-15.3-14.81-15.3S36.9,345.49,37,353.61Z"/><path class="cls-1" d="M80.5,336.39v31.93H99.89v2.51h-22V336.39Z"/><path class="cls-1" d="M131.73,336.39v21.4c0,18-26.38,18.06-26.38,0v-21.4H108v21.4c0,14.82,21.16,14.77,21.16,0v-21.4Z"/><path class="cls-1" d="M169.86,366.06a17.75,17.75,0,0,1-12.55,5.17c-11.61,0-17.66-8.12-17.71-17.42S145.5,336,157.31,336a17.75,17.75,0,0,1,12.55,5.17L168,342.74a15,15,0,0,0-10.73-4.38c-10,0-15.2,7.08-15.15,15.35.09,8.07,5.21,15.06,15.15,15.06a15.41,15.41,0,0,0,10.78-4.38Z"/><path class="cls-1" d="M178.62,370.83V336.39h2.61v34.44Z"/><path class="cls-1" d="M225.56,353.66c-.05,9-5.81,17.76-17.37,17.76s-17.37-8.76-17.37-17.86,5.76-17.71,17.37-17.71S225.61,344.36,225.56,353.66Zm-32.13-.05c0,7.78,5,15.35,14.76,15.35S223,361.39,223,353.61c0-8-4.92-15.3-14.81-15.3S193.38,345.49,193.43,353.61Z"/><path class="cls-1" d="M235.5,336.39l23.18,28.49V336.39h2.6v34.44h-1L237,342.39v28.44h-2.65V336.39Z"/><path class="cls-1" d="M274,352.28H294.2v2.41H274v13.59h21.75v2.55H271.42V336.39h23.77v2.51H274Z"/><path class="cls-1" d="M327.47,343c-2.51-4-6.55-4.62-10.44-4.67s-10.43,1.47-10.43,7c0,4.38,4.73,5.42,10.53,6.5,6.65,1.28,13.53,2.46,13.53,9.89,0,7.77-7.87,9.64-13.63,9.64-5.36,0-11.46-2.21-14.12-7.47l2.36-1.19C307.39,366.9,312.8,369,317,369s11-1.18,11-7.28c.05-5.17-5.66-6.3-11.32-7.38-6.3-1.23-12.75-2.51-12.75-8.86-.14-7.28,7.43-9.54,13.09-9.54,4.92,0,9.21.78,12.6,5.85Z"/><path class="cls-1" d="M357.38,352.77h19.83v2.51H357.38v15.6h-2.66V336.39H377.9V339H357.38Z"/><path class="cls-1" d="M386.76,370.83V336.39h2.6v34.44Z"/><path class="cls-1" d="M400.58,336.39l23.18,28.49V336.39h2.61v34.44h-1l-23.23-28.44v28.44h-2.66V336.39Z"/><path class="cls-1" d="M463.91,370.83l-3.78-8.46H439.56l-3.74,8.46H433l15.45-34.44h2.91l15.45,34.44Zm-4.82-10.92-9.25-21-9.25,21Z"/><path class="cls-1" d="M474.83,336.39,498,364.88V336.39h2.61v34.44h-1l-23.23-28.44v28.44H473.7V336.39Z"/><path class="cls-1" d="M539.2,366.06a17.77,17.77,0,0,1-12.55,5.17c-11.61,0-17.67-8.12-17.72-17.42S514.84,336,526.65,336a17.77,17.77,0,0,1,12.55,5.17l-1.82,1.58a15.06,15.06,0,0,0-10.73-4.38c-10,0-15.21,7.08-15.16,15.35.1,8.07,5.22,15.06,15.16,15.06a15.43,15.43,0,0,0,10.78-4.38Z"/><path class="cls-1" d="M548,370.83V336.39h2.61v34.44Z"/><path class="cls-1" d="M563.21,352.28h20.17v2.41H563.21v13.59H585v2.55H560.6V336.39h23.77v2.51H563.21Z"/><path class="cls-1" d="M620.78,370.83h-3.49l-11.91-13H596v13h-2.66V336.39h15.16c7.48,0,11.27,5.36,11.32,10.73.05,5.6-3.65,10.53-11.17,10.53ZM596,355.28h12.2c6,0,8.66-3.39,8.71-8.21.05-4-2.7-8.22-8.41-8.22H596Z"/><path class="cls-1" d="M655.08,370.83l-3.79-8.46H630.72L627,370.83h-2.86l15.46-34.44h2.9l15.45,34.44Zm-4.83-10.92L641,339l-9.25,21Z"/><path class="cls-1" d="M686.62,343c-2.51-4-6.55-4.62-10.43-4.67-4,0-10.44,1.47-10.44,7,0,4.38,4.73,5.42,10.53,6.5,6.65,1.28,13.54,2.46,13.54,9.89-.05,7.77-7.88,9.64-13.63,9.64-5.37,0-11.47-2.21-14.13-7.47l2.36-1.19c2.12,4.19,7.53,6.25,11.77,6.25s11-1.18,11-7.28c.05-5.17-5.66-6.3-11.32-7.38-6.3-1.23-12.74-2.51-12.74-8.86-.15-7.28,7.43-9.54,13.09-9.54,4.92,0,9.2.78,12.59,5.85Z"/></g></g></svg>